<mxfile host="app.diagrams.net" modified="2021-12-06T17:15:57.920Z" agent="5.0 (X11)" etag="T7TD7061T7bMqmsAbt6V" version="15.9.1" type="github" pages="2">
  <diagram id="R2lEEEUBdFMjLlhIrx00" name="Design">
    <mxGraphModel dx="1350" dy="764" grid="1" gridSize="10" guides="1" tooltips="1" connect="1" arrows="1" fold="1" page="1" pageScale="1" pageWidth="850" pageHeight="1100" background="none" math="0" shadow="0" extFonts="Permanent Marker^https://fonts.googleapis.com/css?family=Permanent+Marker">
      <root>
        <mxCell id="0" />
        <mxCell id="1" parent="0" />
        <mxCell id="j-XfJcJ-BRer3KUw5DXA-1" value="lamppost" style="shape=table;startSize=30;container=1;collapsible=1;childLayout=tableLayout;fixedRows=1;rowLines=0;fontStyle=1;align=center;resizeLast=1;fillColor=#FAE5C7;strokeColor=#0F8B8D;fontColor=#143642;" parent="1" vertex="1">
          <mxGeometry x="40" y="40" width="290" height="130" as="geometry">
            <mxRectangle x="40" y="40" width="90" height="30" as="alternateBounds" />
          </mxGeometry>
        </mxCell>
        <mxCell id="j-XfJcJ-BRer3KUw5DXA-2" value="" style="shape=partialRectangle;collapsible=0;dropTarget=0;pointerEvents=0;fillColor=none;points=[[0,0.5],[1,0.5]];portConstraint=eastwest;top=0;left=0;right=0;bottom=1;strokeColor=#0F8B8D;fontColor=#143642;" parent="j-XfJcJ-BRer3KUw5DXA-1" vertex="1">
          <mxGeometry y="30" width="290" height="30" as="geometry" />
        </mxCell>
        <mxCell id="j-XfJcJ-BRer3KUw5DXA-3" value="PK" style="shape=partialRectangle;overflow=hidden;connectable=0;fillColor=none;top=0;left=0;bottom=0;right=0;fontStyle=1;strokeColor=#0F8B8D;fontColor=#143642;" parent="j-XfJcJ-BRer3KUw5DXA-2" vertex="1">
          <mxGeometry width="30" height="30" as="geometry">
            <mxRectangle width="30" height="30" as="alternateBounds" />
          </mxGeometry>
        </mxCell>
        <mxCell id="j-XfJcJ-BRer3KUw5DXA-4" value="pole_id int NOT NULL AUTOINCREMENT" style="shape=partialRectangle;overflow=hidden;connectable=0;fillColor=none;top=0;left=0;bottom=0;right=0;align=left;spacingLeft=6;fontStyle=1;strokeColor=#0F8B8D;fontColor=#143642;" parent="j-XfJcJ-BRer3KUw5DXA-2" vertex="1">
          <mxGeometry x="30" width="260" height="30" as="geometry">
            <mxRectangle width="260" height="30" as="alternateBounds" />
          </mxGeometry>
        </mxCell>
        <mxCell id="j-XfJcJ-BRer3KUw5DXA-12" value="" style="shape=partialRectangle;collapsible=0;dropTarget=0;pointerEvents=0;fillColor=none;top=0;left=0;bottom=0;right=0;points=[[0,0.5],[1,0.5]];portConstraint=eastwest;strokeColor=#0F8B8D;fontColor=#143642;" parent="j-XfJcJ-BRer3KUw5DXA-1" vertex="1">
          <mxGeometry y="60" width="290" height="30" as="geometry" />
        </mxCell>
        <mxCell id="j-XfJcJ-BRer3KUw5DXA-13" value="FK" style="shape=partialRectangle;connectable=0;fillColor=none;top=0;left=0;bottom=0;right=0;fontStyle=0;overflow=hidden;strokeColor=#0F8B8D;fontColor=#143642;" parent="j-XfJcJ-BRer3KUw5DXA-12" vertex="1">
          <mxGeometry width="30" height="30" as="geometry">
            <mxRectangle width="30" height="30" as="alternateBounds" />
          </mxGeometry>
        </mxCell>
        <mxCell id="j-XfJcJ-BRer3KUw5DXA-14" value="gps double[2] " style="shape=partialRectangle;connectable=0;fillColor=none;top=0;left=0;bottom=0;right=0;align=left;spacingLeft=6;fontStyle=0;overflow=hidden;strokeColor=#0F8B8D;fontColor=#143642;" parent="j-XfJcJ-BRer3KUw5DXA-12" vertex="1">
          <mxGeometry x="30" width="260" height="30" as="geometry">
            <mxRectangle width="260" height="30" as="alternateBounds" />
          </mxGeometry>
        </mxCell>
        <mxCell id="j-XfJcJ-BRer3KUw5DXA-16" value="" style="shape=partialRectangle;collapsible=0;dropTarget=0;pointerEvents=0;fillColor=none;top=0;left=0;bottom=0;right=0;points=[[0,0.5],[1,0.5]];portConstraint=eastwest;strokeColor=#0F8B8D;fontColor=#143642;" parent="j-XfJcJ-BRer3KUw5DXA-1" vertex="1">
          <mxGeometry y="90" width="290" height="30" as="geometry" />
        </mxCell>
        <mxCell id="j-XfJcJ-BRer3KUw5DXA-17" value="" style="shape=partialRectangle;connectable=0;fillColor=none;top=0;left=0;bottom=0;right=0;editable=1;overflow=hidden;strokeColor=#0F8B8D;fontColor=#143642;" parent="j-XfJcJ-BRer3KUw5DXA-16" vertex="1">
          <mxGeometry width="30" height="30" as="geometry">
            <mxRectangle width="30" height="30" as="alternateBounds" />
          </mxGeometry>
        </mxCell>
        <mxCell id="j-XfJcJ-BRer3KUw5DXA-18" value="pole_status char" style="shape=partialRectangle;connectable=0;fillColor=none;top=0;left=0;bottom=0;right=0;align=left;spacingLeft=6;overflow=hidden;strokeColor=#0F8B8D;fontColor=#143642;" parent="j-XfJcJ-BRer3KUw5DXA-16" vertex="1">
          <mxGeometry x="30" width="260" height="30" as="geometry">
            <mxRectangle width="260" height="30" as="alternateBounds" />
          </mxGeometry>
        </mxCell>
        <mxCell id="j-XfJcJ-BRer3KUw5DXA-19" value="location" style="shape=table;startSize=30;container=1;collapsible=1;childLayout=tableLayout;fixedRows=1;rowLines=0;fontStyle=1;align=center;resizeLast=1;fillColor=#FAE5C7;strokeColor=#0F8B8D;fontColor=#143642;" parent="1" vertex="1">
          <mxGeometry x="420" y="40" width="250" height="130" as="geometry">
            <mxRectangle x="300" y="510" width="90" height="30" as="alternateBounds" />
          </mxGeometry>
        </mxCell>
        <mxCell id="j-XfJcJ-BRer3KUw5DXA-20" value="" style="shape=partialRectangle;collapsible=0;dropTarget=0;pointerEvents=0;fillColor=none;points=[[0,0.5],[1,0.5]];portConstraint=eastwest;top=0;left=0;right=0;bottom=1;strokeColor=#0F8B8D;fontColor=#143642;" parent="j-XfJcJ-BRer3KUw5DXA-19" vertex="1">
          <mxGeometry y="30" width="250" height="30" as="geometry" />
        </mxCell>
        <mxCell id="j-XfJcJ-BRer3KUw5DXA-21" value="PK" style="shape=partialRectangle;overflow=hidden;connectable=0;fillColor=none;top=0;left=0;bottom=0;right=0;fontStyle=1;strokeColor=#0F8B8D;fontColor=#143642;" parent="j-XfJcJ-BRer3KUw5DXA-20" vertex="1">
          <mxGeometry width="30" height="30" as="geometry">
            <mxRectangle width="30" height="30" as="alternateBounds" />
          </mxGeometry>
        </mxCell>
        <mxCell id="j-XfJcJ-BRer3KUw5DXA-22" value="gps double[2] " style="shape=partialRectangle;overflow=hidden;connectable=0;fillColor=none;top=0;left=0;bottom=0;right=0;align=left;spacingLeft=6;fontStyle=1;strokeColor=#0F8B8D;fontColor=#143642;" parent="j-XfJcJ-BRer3KUw5DXA-20" vertex="1">
          <mxGeometry x="30" width="220" height="30" as="geometry">
            <mxRectangle width="220" height="30" as="alternateBounds" />
          </mxGeometry>
        </mxCell>
        <mxCell id="j-XfJcJ-BRer3KUw5DXA-23" value="" style="shape=partialRectangle;collapsible=0;dropTarget=0;pointerEvents=0;fillColor=none;top=0;left=0;bottom=0;right=0;points=[[0,0.5],[1,0.5]];portConstraint=eastwest;strokeColor=#0F8B8D;fontColor=#143642;" parent="j-XfJcJ-BRer3KUw5DXA-19" vertex="1">
          <mxGeometry y="60" width="250" height="30" as="geometry" />
        </mxCell>
        <mxCell id="j-XfJcJ-BRer3KUw5DXA-24" value="FK" style="shape=partialRectangle;connectable=0;fillColor=none;top=0;left=0;bottom=0;right=0;fontStyle=0;overflow=hidden;strokeColor=#0F8B8D;fontColor=#143642;" parent="j-XfJcJ-BRer3KUw5DXA-23" vertex="1">
          <mxGeometry width="30" height="30" as="geometry">
            <mxRectangle width="30" height="30" as="alternateBounds" />
          </mxGeometry>
        </mxCell>
        <mxCell id="j-XfJcJ-BRer3KUw5DXA-25" value="post_code int NOT NULL" style="shape=partialRectangle;connectable=0;fillColor=none;top=0;left=0;bottom=0;right=0;align=left;spacingLeft=6;fontStyle=0;overflow=hidden;strokeColor=#0F8B8D;fontColor=#143642;" parent="j-XfJcJ-BRer3KUw5DXA-23" vertex="1">
          <mxGeometry x="30" width="220" height="30" as="geometry">
            <mxRectangle width="220" height="30" as="alternateBounds" />
          </mxGeometry>
        </mxCell>
        <mxCell id="j-XfJcJ-BRer3KUw5DXA-26" value="" style="shape=partialRectangle;collapsible=0;dropTarget=0;pointerEvents=0;fillColor=none;top=0;left=0;bottom=0;right=0;points=[[0,0.5],[1,0.5]];portConstraint=eastwest;strokeColor=#0F8B8D;fontColor=#143642;" parent="j-XfJcJ-BRer3KUw5DXA-19" vertex="1">
          <mxGeometry y="90" width="250" height="30" as="geometry" />
        </mxCell>
        <mxCell id="j-XfJcJ-BRer3KUw5DXA-27" value="" style="shape=partialRectangle;connectable=0;fillColor=none;top=0;left=0;bottom=0;right=0;editable=1;overflow=hidden;strokeColor=#0F8B8D;fontColor=#143642;" parent="j-XfJcJ-BRer3KUw5DXA-26" vertex="1">
          <mxGeometry width="30" height="30" as="geometry">
            <mxRectangle width="30" height="30" as="alternateBounds" />
          </mxGeometry>
        </mxCell>
        <mxCell id="j-XfJcJ-BRer3KUw5DXA-28" value="street_name char[50] NOT NULL" style="shape=partialRectangle;connectable=0;fillColor=none;top=0;left=0;bottom=0;right=0;align=left;spacingLeft=6;overflow=hidden;strokeColor=#0F8B8D;fontColor=#143642;" parent="j-XfJcJ-BRer3KUw5DXA-26" vertex="1">
          <mxGeometry x="30" width="220" height="30" as="geometry">
            <mxRectangle width="220" height="30" as="alternateBounds" />
          </mxGeometry>
        </mxCell>
        <mxCell id="j-XfJcJ-BRer3KUw5DXA-29" value="region" style="shape=table;startSize=30;container=1;collapsible=1;childLayout=tableLayout;fixedRows=1;rowLines=0;fontStyle=1;align=center;resizeLast=1;fillColor=#FAE5C7;strokeColor=#0F8B8D;fontColor=#143642;" parent="1" vertex="1">
          <mxGeometry x="400" y="242" width="290" height="190" as="geometry">
            <mxRectangle x="300" y="510" width="90" height="30" as="alternateBounds" />
          </mxGeometry>
        </mxCell>
        <mxCell id="j-XfJcJ-BRer3KUw5DXA-30" value="" style="shape=partialRectangle;collapsible=0;dropTarget=0;pointerEvents=0;fillColor=none;points=[[0,0.5],[1,0.5]];portConstraint=eastwest;top=0;left=0;right=0;bottom=1;strokeColor=#0F8B8D;fontColor=#143642;" parent="j-XfJcJ-BRer3KUw5DXA-29" vertex="1">
          <mxGeometry y="30" width="290" height="30" as="geometry" />
        </mxCell>
        <mxCell id="j-XfJcJ-BRer3KUw5DXA-31" value="PK" style="shape=partialRectangle;overflow=hidden;connectable=0;fillColor=none;top=0;left=0;bottom=0;right=0;fontStyle=1;strokeColor=#0F8B8D;fontColor=#143642;" parent="j-XfJcJ-BRer3KUw5DXA-30" vertex="1">
          <mxGeometry width="30" height="30" as="geometry">
            <mxRectangle width="30" height="30" as="alternateBounds" />
          </mxGeometry>
        </mxCell>
        <mxCell id="j-XfJcJ-BRer3KUw5DXA-32" value="post_code int NOT NULL " style="shape=partialRectangle;overflow=hidden;connectable=0;fillColor=none;top=0;left=0;bottom=0;right=0;align=left;spacingLeft=6;fontStyle=1;strokeColor=#0F8B8D;fontColor=#143642;" parent="j-XfJcJ-BRer3KUw5DXA-30" vertex="1">
          <mxGeometry x="30" width="260" height="30" as="geometry">
            <mxRectangle width="260" height="30" as="alternateBounds" />
          </mxGeometry>
        </mxCell>
        <mxCell id="j-XfJcJ-BRer3KUw5DXA-60" value="" style="shape=partialRectangle;collapsible=0;dropTarget=0;pointerEvents=0;fillColor=none;top=0;left=0;bottom=0;right=0;points=[[0,0.5],[1,0.5]];portConstraint=eastwest;strokeColor=#0F8B8D;fontColor=#143642;" parent="j-XfJcJ-BRer3KUw5DXA-29" vertex="1">
          <mxGeometry y="60" width="290" height="30" as="geometry" />
        </mxCell>
        <mxCell id="j-XfJcJ-BRer3KUw5DXA-61" value="FK" style="shape=partialRectangle;connectable=0;fillColor=none;top=0;left=0;bottom=0;right=0;fontStyle=0;overflow=hidden;strokeColor=#0F8B8D;fontColor=#143642;" parent="j-XfJcJ-BRer3KUw5DXA-60" vertex="1">
          <mxGeometry width="30" height="30" as="geometry">
            <mxRectangle width="30" height="30" as="alternateBounds" />
          </mxGeometry>
        </mxCell>
        <mxCell id="j-XfJcJ-BRer3KUw5DXA-62" value="operator_id int NOT NULL AUTOINCREMENT" style="shape=partialRectangle;connectable=0;fillColor=none;top=0;left=0;bottom=0;right=0;align=left;spacingLeft=6;fontStyle=0;overflow=hidden;strokeColor=#0F8B8D;fontColor=#143642;" parent="j-XfJcJ-BRer3KUw5DXA-60" vertex="1">
          <mxGeometry x="30" width="260" height="30" as="geometry">
            <mxRectangle width="260" height="30" as="alternateBounds" />
          </mxGeometry>
        </mxCell>
        <mxCell id="j-XfJcJ-BRer3KUw5DXA-36" value="" style="shape=partialRectangle;collapsible=0;dropTarget=0;pointerEvents=0;fillColor=none;top=0;left=0;bottom=0;right=0;points=[[0,0.5],[1,0.5]];portConstraint=eastwest;strokeColor=#0F8B8D;fontColor=#143642;" parent="j-XfJcJ-BRer3KUw5DXA-29" vertex="1">
          <mxGeometry y="90" width="290" height="30" as="geometry" />
        </mxCell>
        <mxCell id="j-XfJcJ-BRer3KUw5DXA-37" value="" style="shape=partialRectangle;connectable=0;fillColor=none;top=0;left=0;bottom=0;right=0;editable=1;overflow=hidden;strokeColor=#0F8B8D;fontColor=#143642;" parent="j-XfJcJ-BRer3KUw5DXA-36" vertex="1">
          <mxGeometry width="30" height="30" as="geometry">
            <mxRectangle width="30" height="30" as="alternateBounds" />
          </mxGeometry>
        </mxCell>
        <mxCell id="j-XfJcJ-BRer3KUw5DXA-38" value="parish char[50] NOT NULL" style="shape=partialRectangle;connectable=0;fillColor=none;top=0;left=0;bottom=0;right=0;align=left;spacingLeft=6;overflow=hidden;strokeColor=#0F8B8D;fontColor=#143642;" parent="j-XfJcJ-BRer3KUw5DXA-36" vertex="1">
          <mxGeometry x="30" width="260" height="30" as="geometry">
            <mxRectangle width="260" height="30" as="alternateBounds" />
          </mxGeometry>
        </mxCell>
        <mxCell id="j-XfJcJ-BRer3KUw5DXA-39" value="" style="shape=partialRectangle;collapsible=0;dropTarget=0;pointerEvents=0;fillColor=none;top=0;left=0;bottom=0;right=0;points=[[0,0.5],[1,0.5]];portConstraint=eastwest;strokeColor=#0F8B8D;fontColor=#143642;" parent="j-XfJcJ-BRer3KUw5DXA-29" vertex="1">
          <mxGeometry y="120" width="290" height="30" as="geometry" />
        </mxCell>
        <mxCell id="j-XfJcJ-BRer3KUw5DXA-40" value="" style="shape=partialRectangle;connectable=0;fillColor=none;top=0;left=0;bottom=0;right=0;editable=1;overflow=hidden;strokeColor=#0F8B8D;fontColor=#143642;" parent="j-XfJcJ-BRer3KUw5DXA-39" vertex="1">
          <mxGeometry width="30" height="30" as="geometry">
            <mxRectangle width="30" height="30" as="alternateBounds" />
          </mxGeometry>
        </mxCell>
        <mxCell id="j-XfJcJ-BRer3KUw5DXA-41" value="county char[50] NOT NULL" style="shape=partialRectangle;connectable=0;fillColor=none;top=0;left=0;bottom=0;right=0;align=left;spacingLeft=6;overflow=hidden;strokeColor=#0F8B8D;fontColor=#143642;" parent="j-XfJcJ-BRer3KUw5DXA-39" vertex="1">
          <mxGeometry x="30" width="260" height="30" as="geometry">
            <mxRectangle width="260" height="30" as="alternateBounds" />
          </mxGeometry>
        </mxCell>
        <mxCell id="j-XfJcJ-BRer3KUw5DXA-42" value="" style="shape=partialRectangle;collapsible=0;dropTarget=0;pointerEvents=0;fillColor=none;top=0;left=0;bottom=0;right=0;points=[[0,0.5],[1,0.5]];portConstraint=eastwest;strokeColor=#0F8B8D;fontColor=#143642;" parent="j-XfJcJ-BRer3KUw5DXA-29" vertex="1">
          <mxGeometry y="150" width="290" height="30" as="geometry" />
        </mxCell>
        <mxCell id="j-XfJcJ-BRer3KUw5DXA-43" value="" style="shape=partialRectangle;connectable=0;fillColor=none;top=0;left=0;bottom=0;right=0;editable=1;overflow=hidden;strokeColor=#0F8B8D;fontColor=#143642;" parent="j-XfJcJ-BRer3KUw5DXA-42" vertex="1">
          <mxGeometry width="30" height="30" as="geometry">
            <mxRectangle width="30" height="30" as="alternateBounds" />
          </mxGeometry>
        </mxCell>
        <mxCell id="j-XfJcJ-BRer3KUw5DXA-44" value="district char[50] NOT NULL" style="shape=partialRectangle;connectable=0;fillColor=none;top=0;left=0;bottom=0;right=0;align=left;spacingLeft=6;overflow=hidden;strokeColor=#0F8B8D;fontColor=#143642;" parent="j-XfJcJ-BRer3KUw5DXA-42" vertex="1">
          <mxGeometry x="30" width="260" height="30" as="geometry">
            <mxRectangle width="260" height="30" as="alternateBounds" />
          </mxGeometry>
        </mxCell>
        <mxCell id="j-XfJcJ-BRer3KUw5DXA-45" value="operator" style="shape=table;startSize=30;container=1;collapsible=1;childLayout=tableLayout;fixedRows=1;rowLines=0;fontStyle=1;align=center;resizeLast=1;fillColor=#FAE5C7;strokeColor=#0F8B8D;fontColor=#143642;" parent="1" vertex="1">
          <mxGeometry x="35" y="280" width="300" height="100" as="geometry">
            <mxRectangle x="300" y="510" width="90" height="30" as="alternateBounds" />
          </mxGeometry>
        </mxCell>
        <mxCell id="j-XfJcJ-BRer3KUw5DXA-46" value="" style="shape=partialRectangle;collapsible=0;dropTarget=0;pointerEvents=0;fillColor=none;points=[[0,0.5],[1,0.5]];portConstraint=eastwest;top=0;left=0;right=0;bottom=1;strokeColor=#0F8B8D;fontColor=#143642;" parent="j-XfJcJ-BRer3KUw5DXA-45" vertex="1">
          <mxGeometry y="30" width="300" height="30" as="geometry" />
        </mxCell>
        <mxCell id="j-XfJcJ-BRer3KUw5DXA-47" value="PK" style="shape=partialRectangle;overflow=hidden;connectable=0;fillColor=none;top=0;left=0;bottom=0;right=0;fontStyle=1;strokeColor=#0F8B8D;fontColor=#143642;" parent="j-XfJcJ-BRer3KUw5DXA-46" vertex="1">
          <mxGeometry width="30" height="30" as="geometry">
            <mxRectangle width="30" height="30" as="alternateBounds" />
          </mxGeometry>
        </mxCell>
        <mxCell id="j-XfJcJ-BRer3KUw5DXA-48" value="operator_id int NOT NULL AUTOINCREMENT" style="shape=partialRectangle;overflow=hidden;connectable=0;fillColor=none;top=0;left=0;bottom=0;right=0;align=left;spacingLeft=6;fontStyle=1;strokeColor=#0F8B8D;fontColor=#143642;" parent="j-XfJcJ-BRer3KUw5DXA-46" vertex="1">
          <mxGeometry x="30" width="270" height="30" as="geometry">
            <mxRectangle width="270" height="30" as="alternateBounds" />
          </mxGeometry>
        </mxCell>
        <mxCell id="j-XfJcJ-BRer3KUw5DXA-49" value="" style="shape=partialRectangle;collapsible=0;dropTarget=0;pointerEvents=0;fillColor=none;top=0;left=0;bottom=0;right=0;points=[[0,0.5],[1,0.5]];portConstraint=eastwest;strokeColor=#0F8B8D;fontColor=#143642;" parent="j-XfJcJ-BRer3KUw5DXA-45" vertex="1">
          <mxGeometry y="60" width="300" height="30" as="geometry" />
        </mxCell>
        <mxCell id="j-XfJcJ-BRer3KUw5DXA-50" value="" style="shape=partialRectangle;connectable=0;fillColor=none;top=0;left=0;bottom=0;right=0;editable=1;overflow=hidden;strokeColor=#0F8B8D;fontColor=#143642;" parent="j-XfJcJ-BRer3KUw5DXA-49" vertex="1">
          <mxGeometry width="30" height="30" as="geometry">
            <mxRectangle width="30" height="30" as="alternateBounds" />
          </mxGeometry>
        </mxCell>
        <mxCell id="j-XfJcJ-BRer3KUw5DXA-51" value="operator_name char[50] NOT NULL" style="shape=partialRectangle;connectable=0;fillColor=none;top=0;left=0;bottom=0;right=0;align=left;spacingLeft=6;overflow=hidden;strokeColor=#0F8B8D;fontColor=#143642;" parent="j-XfJcJ-BRer3KUw5DXA-49" vertex="1">
          <mxGeometry x="30" width="270" height="30" as="geometry">
            <mxRectangle width="270" height="30" as="alternateBounds" />
          </mxGeometry>
        </mxCell>
        <mxCell id="j-XfJcJ-BRer3KUw5DXA-63" value="parking_space" style="shape=table;startSize=30;container=1;collapsible=1;childLayout=tableLayout;fixedRows=1;rowLines=0;fontStyle=1;align=center;resizeLast=1;fillColor=#FAE5C7;strokeColor=#0F8B8D;fontColor=#143642;" parent="1" vertex="1">
          <mxGeometry x="760" y="40" width="280" height="160" as="geometry">
            <mxRectangle x="300" y="510" width="90" height="30" as="alternateBounds" />
          </mxGeometry>
        </mxCell>
        <mxCell id="j-XfJcJ-BRer3KUw5DXA-64" value="" style="shape=partialRectangle;collapsible=0;dropTarget=0;pointerEvents=0;fillColor=none;points=[[0,0.5],[1,0.5]];portConstraint=eastwest;top=0;left=0;right=0;bottom=1;strokeColor=#0F8B8D;fontColor=#143642;" parent="j-XfJcJ-BRer3KUw5DXA-63" vertex="1">
          <mxGeometry y="30" width="280" height="30" as="geometry" />
        </mxCell>
        <mxCell id="j-XfJcJ-BRer3KUw5DXA-65" value="PK" style="shape=partialRectangle;overflow=hidden;connectable=0;fillColor=none;top=0;left=0;bottom=0;right=0;fontStyle=1;strokeColor=#0F8B8D;fontColor=#143642;" parent="j-XfJcJ-BRer3KUw5DXA-64" vertex="1">
          <mxGeometry width="30" height="30" as="geometry">
            <mxRectangle width="30" height="30" as="alternateBounds" />
          </mxGeometry>
        </mxCell>
        <mxCell id="j-XfJcJ-BRer3KUw5DXA-66" value="park_id int NOT NULL AUTOINCREMENT" style="shape=partialRectangle;overflow=hidden;connectable=0;fillColor=none;top=0;left=0;bottom=0;right=0;align=left;spacingLeft=6;fontStyle=1;strokeColor=#0F8B8D;fontColor=#143642;" parent="j-XfJcJ-BRer3KUw5DXA-64" vertex="1">
          <mxGeometry x="30" width="250" height="30" as="geometry">
            <mxRectangle width="250" height="30" as="alternateBounds" />
          </mxGeometry>
        </mxCell>
        <mxCell id="j-XfJcJ-BRer3KUw5DXA-67" value="" style="shape=partialRectangle;collapsible=0;dropTarget=0;pointerEvents=0;fillColor=none;top=0;left=0;bottom=0;right=0;points=[[0,0.5],[1,0.5]];portConstraint=eastwest;strokeColor=#0F8B8D;fontColor=#143642;" parent="j-XfJcJ-BRer3KUw5DXA-63" vertex="1">
          <mxGeometry y="60" width="280" height="30" as="geometry" />
        </mxCell>
        <mxCell id="j-XfJcJ-BRer3KUw5DXA-68" value="FK" style="shape=partialRectangle;connectable=0;fillColor=none;top=0;left=0;bottom=0;right=0;fontStyle=0;overflow=hidden;strokeColor=#0F8B8D;fontColor=#143642;" parent="j-XfJcJ-BRer3KUw5DXA-67" vertex="1">
          <mxGeometry width="30" height="30" as="geometry">
            <mxRectangle width="30" height="30" as="alternateBounds" />
          </mxGeometry>
        </mxCell>
        <mxCell id="j-XfJcJ-BRer3KUw5DXA-69" value="gps double[2] " style="shape=partialRectangle;connectable=0;fillColor=none;top=0;left=0;bottom=0;right=0;align=left;spacingLeft=6;fontStyle=0;overflow=hidden;strokeColor=#0F8B8D;fontColor=#143642;" parent="j-XfJcJ-BRer3KUw5DXA-67" vertex="1">
          <mxGeometry x="30" width="250" height="30" as="geometry">
            <mxRectangle width="250" height="30" as="alternateBounds" />
          </mxGeometry>
        </mxCell>
        <mxCell id="j-XfJcJ-BRer3KUw5DXA-73" value="" style="shape=partialRectangle;collapsible=0;dropTarget=0;pointerEvents=0;fillColor=none;top=0;left=0;bottom=0;right=0;points=[[0,0.5],[1,0.5]];portConstraint=eastwest;strokeColor=#0F8B8D;fontColor=#143642;" parent="j-XfJcJ-BRer3KUw5DXA-63" vertex="1">
          <mxGeometry y="90" width="280" height="30" as="geometry" />
        </mxCell>
        <mxCell id="j-XfJcJ-BRer3KUw5DXA-74" value="" style="shape=partialRectangle;connectable=0;fillColor=none;top=0;left=0;bottom=0;right=0;fontStyle=0;overflow=hidden;strokeColor=#0F8B8D;fontColor=#143642;" parent="j-XfJcJ-BRer3KUw5DXA-73" vertex="1">
          <mxGeometry width="30" height="30" as="geometry">
            <mxRectangle width="30" height="30" as="alternateBounds" />
          </mxGeometry>
        </mxCell>
        <mxCell id="j-XfJcJ-BRer3KUw5DXA-75" value="park_type char" style="shape=partialRectangle;connectable=0;fillColor=none;top=0;left=0;bottom=0;right=0;align=left;spacingLeft=6;fontStyle=0;overflow=hidden;strokeColor=#0F8B8D;fontColor=#143642;" parent="j-XfJcJ-BRer3KUw5DXA-73" vertex="1">
          <mxGeometry x="30" width="250" height="30" as="geometry">
            <mxRectangle width="250" height="30" as="alternateBounds" />
          </mxGeometry>
        </mxCell>
        <mxCell id="j-XfJcJ-BRer3KUw5DXA-70" value="" style="shape=partialRectangle;collapsible=0;dropTarget=0;pointerEvents=0;fillColor=none;top=0;left=0;bottom=0;right=0;points=[[0,0.5],[1,0.5]];portConstraint=eastwest;strokeColor=#0F8B8D;fontColor=#143642;" parent="j-XfJcJ-BRer3KUw5DXA-63" vertex="1">
          <mxGeometry y="120" width="280" height="30" as="geometry" />
        </mxCell>
        <mxCell id="j-XfJcJ-BRer3KUw5DXA-71" value="" style="shape=partialRectangle;connectable=0;fillColor=none;top=0;left=0;bottom=0;right=0;editable=1;overflow=hidden;strokeColor=#0F8B8D;fontColor=#143642;" parent="j-XfJcJ-BRer3KUw5DXA-70" vertex="1">
          <mxGeometry width="30" height="30" as="geometry">
            <mxRectangle width="30" height="30" as="alternateBounds" />
          </mxGeometry>
        </mxCell>
        <mxCell id="j-XfJcJ-BRer3KUw5DXA-72" value="park_status char" style="shape=partialRectangle;connectable=0;fillColor=none;top=0;left=0;bottom=0;right=0;align=left;spacingLeft=6;overflow=hidden;strokeColor=#0F8B8D;fontColor=#143642;" parent="j-XfJcJ-BRer3KUw5DXA-70" vertex="1">
          <mxGeometry x="30" width="250" height="30" as="geometry">
            <mxRectangle width="250" height="30" as="alternateBounds" />
          </mxGeometry>
        </mxCell>
        <mxCell id="j-XfJcJ-BRer3KUw5DXA-76" value="" style="endArrow=ERoneToMany;startArrow=ERone;endFill=0;startFill=0;exitX=1;exitY=0.5;exitDx=0;exitDy=0;entryX=0;entryY=0.5;entryDx=0;entryDy=0;strokeWidth=2;edgeStyle=entityRelationEdgeStyle;labelBackgroundColor=#DAD2D8;strokeColor=#A8201A;fontColor=#143642;" parent="1" source="j-XfJcJ-BRer3KUw5DXA-45" target="j-XfJcJ-BRer3KUw5DXA-36" edge="1">
          <mxGeometry width="100" height="100" relative="1" as="geometry">
            <mxPoint x="290" y="354" as="sourcePoint" />
            <mxPoint x="400" y="384" as="targetPoint" />
          </mxGeometry>
        </mxCell>
        <mxCell id="j-XfJcJ-BRer3KUw5DXA-77" value="" style="edgeStyle=entityRelationEdgeStyle;endArrow=ERzeroToMany;startArrow=ERone;endFill=1;startFill=0;exitX=1;exitY=0.5;exitDx=0;exitDy=0;entryX=0;entryY=0.5;entryDx=0;entryDy=0;strokeWidth=2;labelBackgroundColor=#DAD2D8;strokeColor=#A8201A;fontColor=#143642;" parent="1" source="j-XfJcJ-BRer3KUw5DXA-23" target="j-XfJcJ-BRer3KUw5DXA-73" edge="1">
          <mxGeometry width="100" height="100" relative="1" as="geometry">
            <mxPoint x="650" y="120" as="sourcePoint" />
            <mxPoint x="760" y="150" as="targetPoint" />
          </mxGeometry>
        </mxCell>
        <mxCell id="j-XfJcJ-BRer3KUw5DXA-78" value="" style="edgeStyle=orthogonalEdgeStyle;endArrow=ERzeroToMany;startArrow=ERone;endFill=1;startFill=0;exitX=0.5;exitY=0;exitDx=0;exitDy=0;entryX=0.5;entryY=1;entryDx=0;entryDy=0;strokeWidth=2;labelBackgroundColor=#DAD2D8;strokeColor=#A8201A;fontColor=#143642;" parent="1" source="j-XfJcJ-BRer3KUw5DXA-29" target="j-XfJcJ-BRer3KUw5DXA-19" edge="1">
          <mxGeometry width="100" height="100" relative="1" as="geometry">
            <mxPoint x="570" y="220" as="sourcePoint" />
            <mxPoint x="680" y="250" as="targetPoint" />
          </mxGeometry>
        </mxCell>
        <mxCell id="j-XfJcJ-BRer3KUw5DXA-79" value="" style="edgeStyle=entityRelationEdgeStyle;endArrow=ERone;startArrow=ERone;endFill=0;startFill=0;exitX=1;exitY=0.5;exitDx=0;exitDy=0;entryX=0;entryY=0.5;entryDx=0;entryDy=0;strokeWidth=2;labelBackgroundColor=#DAD2D8;strokeColor=#A8201A;fontColor=#143642;" parent="1" source="j-XfJcJ-BRer3KUw5DXA-12" target="j-XfJcJ-BRer3KUw5DXA-23" edge="1">
          <mxGeometry width="100" height="100" relative="1" as="geometry">
            <mxPoint x="280" y="120" as="sourcePoint" />
            <mxPoint x="390" y="150" as="targetPoint" />
          </mxGeometry>
        </mxCell>
      </root>
    </mxGraphModel>
  </diagram>
  <diagram name="Analysis" id="SHX3xZ84f9y7oodzhDz0">
    <mxGraphModel dx="771" dy="437" grid="1" gridSize="10" guides="1" tooltips="1" connect="1" arrows="1" fold="1" page="1" pageScale="1" pageWidth="850" pageHeight="1100" background="none" math="0" shadow="0" extFonts="Permanent Marker^https://fonts.googleapis.com/css?family=Permanent+Marker">
      <root>
        <mxCell id="jsJ9yPAow1BWh7221ygY-0" />
        <mxCell id="jsJ9yPAow1BWh7221ygY-1" parent="jsJ9yPAow1BWh7221ygY-0" />
        <mxCell id="jsJ9yPAow1BWh7221ygY-62" value="Coordinates" style="ellipse;whiteSpace=wrap;html=1;fillColor=#FAE5C7;strokeColor=#0F8B8D;fontColor=#143642;" parent="jsJ9yPAow1BWh7221ygY-1" vertex="1">
          <mxGeometry x="10" y="365" width="90" height="50" as="geometry" />
        </mxCell>
        <mxCell id="LeFuXB7u9rx_XWbmq312-8" style="edgeStyle=none;rounded=0;sketch=0;orthogonalLoop=1;jettySize=auto;html=1;exitX=0;exitY=0.5;exitDx=0;exitDy=0;entryX=1;entryY=0.5;entryDx=0;entryDy=0;fontColor=#143642;endArrow=none;endFill=0;strokeColor=#A8201A;fillColor=#FAE5C7;" parent="jsJ9yPAow1BWh7221ygY-1" source="jsJ9yPAow1BWh7221ygY-63" target="jsJ9yPAow1BWh7221ygY-62" edge="1">
          <mxGeometry relative="1" as="geometry" />
        </mxCell>
        <mxCell id="LeFuXB7u9rx_XWbmq312-9" style="edgeStyle=none;rounded=0;sketch=0;orthogonalLoop=1;jettySize=auto;html=1;exitX=0;exitY=0.25;exitDx=0;exitDy=0;fontColor=#143642;endArrow=none;endFill=0;strokeColor=#A8201A;fillColor=#FAE5C7;" parent="jsJ9yPAow1BWh7221ygY-1" source="jsJ9yPAow1BWh7221ygY-63" target="jsJ9yPAow1BWh7221ygY-68" edge="1">
          <mxGeometry relative="1" as="geometry" />
        </mxCell>
        <mxCell id="LeFuXB7u9rx_XWbmq312-10" style="edgeStyle=none;rounded=0;sketch=0;orthogonalLoop=1;jettySize=auto;html=1;exitX=0.5;exitY=0;exitDx=0;exitDy=0;entryX=0.5;entryY=1;entryDx=0;entryDy=0;fontColor=#143642;endArrow=none;endFill=0;strokeColor=#A8201A;fillColor=#FAE5C7;" parent="jsJ9yPAow1BWh7221ygY-1" source="jsJ9yPAow1BWh7221ygY-63" target="jsJ9yPAow1BWh7221ygY-90" edge="1">
          <mxGeometry relative="1" as="geometry" />
        </mxCell>
        <mxCell id="jsJ9yPAow1BWh7221ygY-63" value="&lt;div&gt;Lamppost&lt;/div&gt;" style="rounded=0;whiteSpace=wrap;html=1;fillColor=#f8cecc;strokeColor=#b85450;fontStyle=1" parent="jsJ9yPAow1BWh7221ygY-1" vertex="1">
          <mxGeometry x="160" y="360" width="120" height="60" as="geometry" />
        </mxCell>
        <mxCell id="LeFuXB7u9rx_XWbmq312-12" style="edgeStyle=none;rounded=0;sketch=0;orthogonalLoop=1;jettySize=auto;html=1;exitX=0.5;exitY=0;exitDx=0;exitDy=0;entryX=0.5;entryY=1;entryDx=0;entryDy=0;fontColor=#143642;endArrow=none;endFill=0;strokeColor=#A8201A;fillColor=#FAE5C7;" parent="jsJ9yPAow1BWh7221ygY-1" source="jsJ9yPAow1BWh7221ygY-64" target="jsJ9yPAow1BWh7221ygY-77" edge="1">
          <mxGeometry relative="1" as="geometry" />
        </mxCell>
        <mxCell id="LeFuXB7u9rx_XWbmq312-13" style="edgeStyle=none;rounded=0;sketch=0;orthogonalLoop=1;jettySize=auto;html=1;exitX=0.25;exitY=0;exitDx=0;exitDy=0;entryX=1;entryY=1;entryDx=0;entryDy=0;fontColor=#143642;endArrow=none;endFill=0;strokeColor=#A8201A;fillColor=#FAE5C7;" parent="jsJ9yPAow1BWh7221ygY-1" source="jsJ9yPAow1BWh7221ygY-64" target="jsJ9yPAow1BWh7221ygY-69" edge="1">
          <mxGeometry relative="1" as="geometry" />
        </mxCell>
        <mxCell id="LeFuXB7u9rx_XWbmq312-14" style="edgeStyle=none;rounded=0;sketch=0;orthogonalLoop=1;jettySize=auto;html=1;exitX=0.75;exitY=0;exitDx=0;exitDy=0;entryX=0;entryY=1;entryDx=0;entryDy=0;fontColor=#143642;endArrow=none;endFill=0;strokeColor=#A8201A;fillColor=#FAE5C7;" parent="jsJ9yPAow1BWh7221ygY-1" source="jsJ9yPAow1BWh7221ygY-64" target="jsJ9yPAow1BWh7221ygY-78" edge="1">
          <mxGeometry relative="1" as="geometry" />
        </mxCell>
        <mxCell id="jsJ9yPAow1BWh7221ygY-64" value="&lt;div&gt;Location&lt;/div&gt;" style="rounded=0;whiteSpace=wrap;html=1;fillColor=#f8cecc;strokeColor=#b85450;fontStyle=1" parent="jsJ9yPAow1BWh7221ygY-1" vertex="1">
          <mxGeometry x="360" y="360" width="120" height="60" as="geometry" />
        </mxCell>
        <mxCell id="LeFuXB7u9rx_XWbmq312-15" style="edgeStyle=none;rounded=0;sketch=0;orthogonalLoop=1;jettySize=auto;html=1;exitX=0.5;exitY=0;exitDx=0;exitDy=0;entryX=0.5;entryY=1;entryDx=0;entryDy=0;fontColor=#143642;endArrow=none;endFill=0;strokeColor=#A8201A;fillColor=#FAE5C7;" parent="jsJ9yPAow1BWh7221ygY-1" source="jsJ9yPAow1BWh7221ygY-65" target="jsJ9yPAow1BWh7221ygY-84" edge="1">
          <mxGeometry relative="1" as="geometry" />
        </mxCell>
        <mxCell id="LeFuXB7u9rx_XWbmq312-16" style="edgeStyle=none;rounded=0;sketch=0;orthogonalLoop=1;jettySize=auto;html=1;exitX=0.75;exitY=0;exitDx=0;exitDy=0;entryX=0;entryY=1;entryDx=0;entryDy=0;fontColor=#143642;endArrow=none;endFill=0;strokeColor=#A8201A;fillColor=#FAE5C7;" parent="jsJ9yPAow1BWh7221ygY-1" source="jsJ9yPAow1BWh7221ygY-65" target="jsJ9yPAow1BWh7221ygY-80" edge="1">
          <mxGeometry relative="1" as="geometry" />
        </mxCell>
        <mxCell id="LeFuXB7u9rx_XWbmq312-17" style="edgeStyle=none;rounded=0;sketch=0;orthogonalLoop=1;jettySize=auto;html=1;exitX=1;exitY=0.25;exitDx=0;exitDy=0;entryX=0;entryY=0.5;entryDx=0;entryDy=0;fontColor=#143642;endArrow=none;endFill=0;strokeColor=#A8201A;fillColor=#FAE5C7;" parent="jsJ9yPAow1BWh7221ygY-1" source="jsJ9yPAow1BWh7221ygY-65" target="jsJ9yPAow1BWh7221ygY-79" edge="1">
          <mxGeometry relative="1" as="geometry" />
        </mxCell>
        <mxCell id="LeFuXB7u9rx_XWbmq312-18" style="edgeStyle=none;rounded=0;sketch=0;orthogonalLoop=1;jettySize=auto;html=1;exitX=1;exitY=0.75;exitDx=0;exitDy=0;entryX=0;entryY=0.5;entryDx=0;entryDy=0;fontColor=#143642;endArrow=none;endFill=0;strokeColor=#A8201A;fillColor=#FAE5C7;" parent="jsJ9yPAow1BWh7221ygY-1" source="jsJ9yPAow1BWh7221ygY-65" target="jsJ9yPAow1BWh7221ygY-81" edge="1">
          <mxGeometry relative="1" as="geometry" />
        </mxCell>
        <mxCell id="jsJ9yPAow1BWh7221ygY-65" value="Parking Space" style="rounded=0;whiteSpace=wrap;html=1;fillColor=#f8cecc;strokeColor=#b85450;fontStyle=1" parent="jsJ9yPAow1BWh7221ygY-1" vertex="1">
          <mxGeometry x="560" y="360" width="120" height="60" as="geometry" />
        </mxCell>
        <mxCell id="LeFuXB7u9rx_XWbmq312-1" style="rounded=0;sketch=0;orthogonalLoop=1;jettySize=auto;html=1;exitX=0.085;exitY=1.021;exitDx=0;exitDy=0;entryX=1;entryY=0;entryDx=0;entryDy=0;fontColor=#143642;strokeColor=#A8201A;fillColor=#FAE5C7;endArrow=none;endFill=0;exitPerimeter=0;" parent="jsJ9yPAow1BWh7221ygY-1" source="jsJ9yPAow1BWh7221ygY-66" target="jsJ9yPAow1BWh7221ygY-83" edge="1">
          <mxGeometry relative="1" as="geometry" />
        </mxCell>
        <mxCell id="LeFuXB7u9rx_XWbmq312-7" style="edgeStyle=none;rounded=0;sketch=0;orthogonalLoop=1;jettySize=auto;html=1;exitX=0;exitY=0.5;exitDx=0;exitDy=0;entryX=1;entryY=0.5;entryDx=0;entryDy=0;fontColor=#143642;endArrow=none;endFill=0;strokeColor=#A8201A;fillColor=#FAE5C7;" parent="jsJ9yPAow1BWh7221ygY-1" source="jsJ9yPAow1BWh7221ygY-66" target="jsJ9yPAow1BWh7221ygY-82" edge="1">
          <mxGeometry relative="1" as="geometry" />
        </mxCell>
        <mxCell id="jsJ9yPAow1BWh7221ygY-66" value="Operator" style="rounded=0;whiteSpace=wrap;html=1;fillColor=#f8cecc;strokeColor=#b85450;fontStyle=1" parent="jsJ9yPAow1BWh7221ygY-1" vertex="1">
          <mxGeometry x="160" y="500" width="120" height="60" as="geometry" />
        </mxCell>
        <mxCell id="LeFuXB7u9rx_XWbmq312-2" style="edgeStyle=none;rounded=0;sketch=0;orthogonalLoop=1;jettySize=auto;html=1;exitX=0.25;exitY=1;exitDx=0;exitDy=0;entryX=1;entryY=0;entryDx=0;entryDy=0;fontColor=#143642;endArrow=none;endFill=0;strokeColor=#A8201A;fillColor=#FAE5C7;" parent="jsJ9yPAow1BWh7221ygY-1" source="jsJ9yPAow1BWh7221ygY-67" target="jsJ9yPAow1BWh7221ygY-85" edge="1">
          <mxGeometry relative="1" as="geometry" />
        </mxCell>
        <mxCell id="LeFuXB7u9rx_XWbmq312-3" style="edgeStyle=none;rounded=0;sketch=0;orthogonalLoop=1;jettySize=auto;html=1;exitX=0.5;exitY=1;exitDx=0;exitDy=0;entryX=0.5;entryY=0;entryDx=0;entryDy=0;fontColor=#143642;endArrow=none;endFill=0;strokeColor=#A8201A;fillColor=#FAE5C7;" parent="jsJ9yPAow1BWh7221ygY-1" source="jsJ9yPAow1BWh7221ygY-67" target="jsJ9yPAow1BWh7221ygY-86" edge="1">
          <mxGeometry relative="1" as="geometry" />
        </mxCell>
        <mxCell id="LeFuXB7u9rx_XWbmq312-4" style="edgeStyle=none;rounded=0;sketch=0;orthogonalLoop=1;jettySize=auto;html=1;exitX=0.75;exitY=1;exitDx=0;exitDy=0;entryX=0;entryY=0;entryDx=0;entryDy=0;fontColor=#143642;endArrow=none;endFill=0;strokeColor=#A8201A;fillColor=#FAE5C7;" parent="jsJ9yPAow1BWh7221ygY-1" source="jsJ9yPAow1BWh7221ygY-67" target="jsJ9yPAow1BWh7221ygY-87" edge="1">
          <mxGeometry relative="1" as="geometry" />
        </mxCell>
        <mxCell id="LeFuXB7u9rx_XWbmq312-5" style="edgeStyle=none;rounded=0;sketch=0;orthogonalLoop=1;jettySize=auto;html=1;exitX=1;exitY=0.25;exitDx=0;exitDy=0;entryX=0;entryY=0.5;entryDx=0;entryDy=0;fontColor=#143642;endArrow=none;endFill=0;strokeColor=#A8201A;fillColor=#FAE5C7;" parent="jsJ9yPAow1BWh7221ygY-1" source="jsJ9yPAow1BWh7221ygY-67" target="jsJ9yPAow1BWh7221ygY-88" edge="1">
          <mxGeometry relative="1" as="geometry" />
        </mxCell>
        <mxCell id="LeFuXB7u9rx_XWbmq312-6" style="edgeStyle=none;rounded=0;sketch=0;orthogonalLoop=1;jettySize=auto;html=1;exitX=1;exitY=0.75;exitDx=0;exitDy=0;entryX=0;entryY=0;entryDx=0;entryDy=0;fontColor=#143642;endArrow=none;endFill=0;strokeColor=#A8201A;fillColor=#FAE5C7;" parent="jsJ9yPAow1BWh7221ygY-1" source="jsJ9yPAow1BWh7221ygY-67" target="jsJ9yPAow1BWh7221ygY-89" edge="1">
          <mxGeometry relative="1" as="geometry" />
        </mxCell>
        <mxCell id="jsJ9yPAow1BWh7221ygY-67" value="Region" style="rounded=0;whiteSpace=wrap;html=1;fillColor=#f8cecc;strokeColor=#b85450;fontStyle=1" parent="jsJ9yPAow1BWh7221ygY-1" vertex="1">
          <mxGeometry x="360" y="500" width="120" height="60" as="geometry" />
        </mxCell>
        <mxCell id="jsJ9yPAow1BWh7221ygY-68" value="Status" style="ellipse;whiteSpace=wrap;html=1;fillColor=#FAE5C7;strokeColor=#0F8B8D;fontColor=#143642;" parent="jsJ9yPAow1BWh7221ygY-1" vertex="1">
          <mxGeometry x="60" y="280" width="90" height="50" as="geometry" />
        </mxCell>
        <mxCell id="jsJ9yPAow1BWh7221ygY-69" value="Coordinates" style="ellipse;whiteSpace=wrap;html=1;fillColor=#FAE5C7;strokeColor=#0F8B8D;fontColor=#143642;" parent="jsJ9yPAow1BWh7221ygY-1" vertex="1">
          <mxGeometry x="290" y="300" width="90" height="50" as="geometry" />
        </mxCell>
        <mxCell id="jsJ9yPAow1BWh7221ygY-70" value="" style="edgeStyle=entityRelationEdgeStyle;endArrow=ERone;startArrow=ERone;endFill=0;startFill=0;exitX=1;exitY=0.5;exitDx=0;exitDy=0;strokeWidth=2;strokeColor=#A8201A;fontColor=#143642;labelBackgroundColor=#DAD2D8;" parent="jsJ9yPAow1BWh7221ygY-1" source="jsJ9yPAow1BWh7221ygY-63" edge="1">
          <mxGeometry width="100" height="100" relative="1" as="geometry">
            <mxPoint x="280" y="389.5" as="sourcePoint" />
            <mxPoint x="360" y="390" as="targetPoint" />
          </mxGeometry>
        </mxCell>
        <mxCell id="jsJ9yPAow1BWh7221ygY-71" value="" style="edgeStyle=entityRelationEdgeStyle;endArrow=ERzeroToMany;startArrow=ERone;endFill=1;startFill=0;exitX=1;exitY=0.5;exitDx=0;exitDy=0;entryX=0;entryY=0.5;entryDx=0;entryDy=0;strokeWidth=2;strokeColor=#A8201A;fontColor=#143642;labelBackgroundColor=#DAD2D8;" parent="jsJ9yPAow1BWh7221ygY-1" source="jsJ9yPAow1BWh7221ygY-64" target="jsJ9yPAow1BWh7221ygY-65" edge="1">
          <mxGeometry width="100" height="100" relative="1" as="geometry">
            <mxPoint x="490" y="390" as="sourcePoint" />
            <mxPoint x="580" y="420" as="targetPoint" />
          </mxGeometry>
        </mxCell>
        <mxCell id="jsJ9yPAow1BWh7221ygY-74" value="" style="edgeStyle=orthogonalEdgeStyle;endArrow=ERzeroToMany;startArrow=ERone;endFill=1;startFill=0;exitX=0.5;exitY=0;exitDx=0;exitDy=0;entryX=0.5;entryY=1;entryDx=0;entryDy=0;strokeWidth=2;strokeColor=#A8201A;fontColor=#143642;labelBackgroundColor=#DAD2D8;" parent="jsJ9yPAow1BWh7221ygY-1" source="jsJ9yPAow1BWh7221ygY-67" target="jsJ9yPAow1BWh7221ygY-64" edge="1">
          <mxGeometry width="100" height="100" relative="1" as="geometry">
            <mxPoint x="419.79999999999995" y="522" as="sourcePoint" />
            <mxPoint x="419.79999999999995" y="450" as="targetPoint" />
          </mxGeometry>
        </mxCell>
        <mxCell id="jsJ9yPAow1BWh7221ygY-75" value="" style="endArrow=ERoneToMany;startArrow=ERone;endFill=0;startFill=0;exitX=1;exitY=0.5;exitDx=0;exitDy=0;entryX=0;entryY=0.5;entryDx=0;entryDy=0;strokeWidth=2;edgeStyle=entityRelationEdgeStyle;strokeColor=#A8201A;fontColor=#143642;labelBackgroundColor=#DAD2D8;" parent="jsJ9yPAow1BWh7221ygY-1" source="jsJ9yPAow1BWh7221ygY-66" target="jsJ9yPAow1BWh7221ygY-67" edge="1">
          <mxGeometry width="100" height="100" relative="1" as="geometry">
            <mxPoint x="270" y="520" as="sourcePoint" />
            <mxPoint x="335" y="537" as="targetPoint" />
          </mxGeometry>
        </mxCell>
        <mxCell id="jsJ9yPAow1BWh7221ygY-77" value="&lt;div&gt;Post Code&lt;/div&gt;" style="ellipse;whiteSpace=wrap;html=1;fillColor=#FAE5C7;strokeColor=#0F8B8D;fontColor=#143642;" parent="jsJ9yPAow1BWh7221ygY-1" vertex="1">
          <mxGeometry x="375" y="260" width="90" height="50" as="geometry" />
        </mxCell>
        <mxCell id="jsJ9yPAow1BWh7221ygY-78" value="Street Name" style="ellipse;whiteSpace=wrap;html=1;fillColor=#FAE5C7;strokeColor=#0F8B8D;fontColor=#143642;" parent="jsJ9yPAow1BWh7221ygY-1" vertex="1">
          <mxGeometry x="460" y="300" width="90" height="50" as="geometry" />
        </mxCell>
        <mxCell id="jsJ9yPAow1BWh7221ygY-79" value="Coordinates" style="ellipse;whiteSpace=wrap;html=1;fillColor=#FAE5C7;strokeColor=#0F8B8D;fontColor=#143642;" parent="jsJ9yPAow1BWh7221ygY-1" vertex="1">
          <mxGeometry x="720" y="340" width="90" height="50" as="geometry" />
        </mxCell>
        <mxCell id="jsJ9yPAow1BWh7221ygY-80" value="Type" style="ellipse;whiteSpace=wrap;html=1;fillColor=#FAE5C7;strokeColor=#0F8B8D;fontColor=#143642;" parent="jsJ9yPAow1BWh7221ygY-1" vertex="1">
          <mxGeometry x="700" y="280" width="90" height="50" as="geometry" />
        </mxCell>
        <mxCell id="jsJ9yPAow1BWh7221ygY-81" value="Status" style="ellipse;whiteSpace=wrap;html=1;fillColor=#FAE5C7;strokeColor=#0F8B8D;fontColor=#143642;" parent="jsJ9yPAow1BWh7221ygY-1" vertex="1">
          <mxGeometry x="720" y="400" width="90" height="50" as="geometry" />
        </mxCell>
        <mxCell id="jsJ9yPAow1BWh7221ygY-82" value="Operator ID" style="ellipse;whiteSpace=wrap;html=1;fillColor=#FAE5C7;strokeColor=#0F8B8D;fontColor=#143642;" parent="jsJ9yPAow1BWh7221ygY-1" vertex="1">
          <mxGeometry x="20" y="505" width="90" height="50" as="geometry" />
        </mxCell>
        <mxCell id="jsJ9yPAow1BWh7221ygY-83" value="Name" style="ellipse;whiteSpace=wrap;html=1;fillColor=#FAE5C7;strokeColor=#0F8B8D;fontColor=#143642;" parent="jsJ9yPAow1BWh7221ygY-1" vertex="1">
          <mxGeometry x="50" y="580" width="90" height="50" as="geometry" />
        </mxCell>
        <mxCell id="jsJ9yPAow1BWh7221ygY-84" value="Parking Space ID" style="ellipse;whiteSpace=wrap;html=1;fillColor=#FAE5C7;strokeColor=#0F8B8D;fontColor=#143642;" parent="jsJ9yPAow1BWh7221ygY-1" vertex="1">
          <mxGeometry x="600" y="270" width="90" height="50" as="geometry" />
        </mxCell>
        <mxCell id="jsJ9yPAow1BWh7221ygY-85" value="Post Code" style="ellipse;whiteSpace=wrap;html=1;fillColor=#FAE5C7;strokeColor=#0F8B8D;fontColor=#143642;" parent="jsJ9yPAow1BWh7221ygY-1" vertex="1">
          <mxGeometry x="300" y="600" width="90" height="50" as="geometry" />
        </mxCell>
        <mxCell id="jsJ9yPAow1BWh7221ygY-86" value="Operator ID" style="ellipse;whiteSpace=wrap;html=1;fillColor=#FAE5C7;strokeColor=#0F8B8D;fontColor=#143642;" parent="jsJ9yPAow1BWh7221ygY-1" vertex="1">
          <mxGeometry x="390" y="630" width="90" height="50" as="geometry" />
        </mxCell>
        <mxCell id="jsJ9yPAow1BWh7221ygY-87" value="Parish" style="ellipse;whiteSpace=wrap;html=1;fillColor=#FAE5C7;strokeColor=#0F8B8D;fontColor=#143642;" parent="jsJ9yPAow1BWh7221ygY-1" vertex="1">
          <mxGeometry x="480" y="610" width="90" height="50" as="geometry" />
        </mxCell>
        <mxCell id="jsJ9yPAow1BWh7221ygY-88" value="County" style="ellipse;whiteSpace=wrap;html=1;fillColor=#FAE5C7;strokeColor=#0F8B8D;fontColor=#143642;" parent="jsJ9yPAow1BWh7221ygY-1" vertex="1">
          <mxGeometry x="530" y="490" width="90" height="50" as="geometry" />
        </mxCell>
        <mxCell id="jsJ9yPAow1BWh7221ygY-89" value="District" style="ellipse;whiteSpace=wrap;html=1;fillColor=#FAE5C7;strokeColor=#0F8B8D;fontColor=#143642;" parent="jsJ9yPAow1BWh7221ygY-1" vertex="1">
          <mxGeometry x="530" y="550" width="90" height="50" as="geometry" />
        </mxCell>
        <mxCell id="jsJ9yPAow1BWh7221ygY-90" value="Lamppost ID" style="ellipse;whiteSpace=wrap;html=1;fillColor=#FAE5C7;strokeColor=#0F8B8D;fontColor=#143642;" parent="jsJ9yPAow1BWh7221ygY-1" vertex="1">
          <mxGeometry x="175" y="260" width="90" height="50" as="geometry" />
        </mxCell>
        <mxCell id="Ub3BJQ_AgVArchjLBwBN-0" value="PinCode" style="ellipse;whiteSpace=wrap;html=1;fillColor=#FAE5C7;strokeColor=#0F8B8D;fontColor=#143642;" vertex="1" parent="jsJ9yPAow1BWh7221ygY-1">
          <mxGeometry x="150" y="600" width="90" height="50" as="geometry" />
        </mxCell>
        <mxCell id="Ub3BJQ_AgVArchjLBwBN-2" style="rounded=0;sketch=0;orthogonalLoop=1;jettySize=auto;html=1;exitX=0.5;exitY=1;exitDx=0;exitDy=0;entryX=0.5;entryY=0;entryDx=0;entryDy=0;fontColor=#143642;strokeColor=#A8201A;fillColor=#FAE5C7;endArrow=none;endFill=0;" edge="1" parent="jsJ9yPAow1BWh7221ygY-1" source="jsJ9yPAow1BWh7221ygY-66" target="Ub3BJQ_AgVArchjLBwBN-0">
          <mxGeometry relative="1" as="geometry">
            <mxPoint x="200" y="570" as="sourcePoint" />
            <mxPoint x="156.94242345637997" y="597.3907152740469" as="targetPoint" />
          </mxGeometry>
        </mxCell>
      </root>
    </mxGraphModel>
  </diagram>
</mxfile>
